<svg width="64" height="64" viewBox="0 0 64 64" fill="none" xmlns="http://www.w3.org/2000/svg">
<path d="M11 44V27H22C21.7373 27.1641 21.4629 27.3041 21.1885 27.4333C19.1246 28.4166 17.705 30.3718 17.2518 32.5727L15.7721 39.8788L15.7838 40.0897C13.6843 40.6048 11.9187 42.0329 11.0117 44H11Z" fill="#34CB79"/>
<path d="M43.9091 2.5625L48.5152 2L56 16.0625V18.3125L54.2727 20H38.1515L37 17.75L37.5758 13.8125L43.9091 2.5625Z" fill="#34CB79"/>
<mask id="path-3-inside-1_26563_183" fill="white">
<path fill-rule="evenodd" clip-rule="evenodd" d="M52.6668 49.4727C57.0984 49.4727 60.7038 53.0125 60.7038 57.3636V60.7455V63H3.29654L3.29639 60.7455V57.3636C3.29639 54.1981 5.20922 51.4691 7.95569 50.2119L9.90833 43.8226C9.96308 43.6461 10.0345 43.4798 10.1061 43.3131C10.1328 43.2511 10.1594 43.189 10.1853 43.1263V25.205C10.1853 23.0561 11.4013 21.1241 13.3589 20.1636L14.7779 19.4668V16.7818H12.4816V13.4C12.4816 11.5357 14.0272 10.0182 15.926 10.0182H22.8149C24.7137 10.0182 26.2593 11.5357 26.2593 13.4V16.7818H23.9631V19.4668L25.3831 20.1636C26.45 20.6865 27.2948 21.5254 27.8532 22.5442C28.2619 22.471 28.6818 22.4182 29.1275 22.4182C30.2156 22.4182 31.1849 22.6626 32.0713 23.1624C32.7558 22.8453 33.8636 22.4182 34.8727 22.4182C37.3848 22.4182 39.2948 23.7226 40.9811 24.8742L40.9835 24.8758C41.6007 25.2975 42.1966 25.6806 42.801 26.0185L45.7779 24.0695V21.2909H41.4561C38.7741 21.2909 36.5927 19.1492 36.5927 16.516C36.5927 15.7784 36.7704 15.0403 37.1057 14.3809L42.5756 3.63984C43.4048 2.01113 45.0715 1 46.926 1C48.7805 1 50.4473 2.01113 51.2764 3.63874L56.7464 14.3798C57.0816 15.0403 57.2593 15.7784 57.2593 16.516C57.2593 19.1492 55.078 21.2909 52.396 21.2909H48.0742V24.0695L54.4512 28.245L53.1775 30.1208L48.0742 26.7798V29.7058L54.4512 33.8814L53.1775 35.7572L48.0742 32.4161V35.3422L54.4512 39.5177L53.1775 41.3936L48.0742 38.0525V40.9785L54.4512 45.153L53.1775 47.0288L48.0742 43.6877V47.3084C49.7998 47.5517 51.3499 48.3295 52.5406 49.4727H52.6668ZM39.1598 15.3887C38.9832 15.7371 38.889 16.1268 38.889 16.516C38.889 17.9058 40.0405 19.0364 41.4561 19.0364H52.396C53.8115 19.0364 54.9631 17.9058 54.9631 16.516C54.9631 16.1268 54.87 15.7371 54.6923 15.3887L49.2223 4.64767C48.9683 4.14954 48.5574 3.77965 48.0742 3.54077H45.7779C45.2946 3.77965 44.8837 4.14954 44.6297 4.64767L39.1598 15.3887ZM52.6668 56.1224V55.1091C52.6668 52.3867 50.6906 50.1096 48.0742 49.5867V50.6C48.0742 53.3213 50.0503 55.5995 52.6668 56.1224ZM41.1853 56.1224C43.8017 55.5995 45.7779 53.3224 45.7779 50.6V49.5867C43.1615 50.1096 41.1853 52.3867 41.1853 55.1091V56.1224ZM15.926 12.2727C15.2936 12.2727 14.7779 12.7791 14.7779 13.4V14.5273H23.9631V13.4C23.9631 12.7791 23.4473 12.2727 22.8149 12.2727H15.926ZM17.0742 20.8605L14.3854 22.1804C13.2104 22.7561 12.4816 23.9153 12.4816 25.205V40.0252C13.1947 39.4434 14.0009 38.9799 14.8844 38.6701L16.2282 32.0754C16.7434 29.5495 18.3899 27.4028 20.6335 26.3356C21.4408 25.9508 22.2066 25.4279 23.0167 24.8747C23.8229 24.3243 24.6829 23.7414 25.6326 23.2807C25.3063 22.8205 24.8769 22.4363 24.3555 22.1804L21.6668 20.8605V16.7818H17.0742V20.8605ZM11.3334 51.7273C8.16817 51.7273 5.59268 54.2559 5.59268 57.3636V60.7455H58.4075V57.3636C58.4075 54.8185 56.669 52.6878 54.3049 51.9898C54.7265 52.947 54.9631 54.0011 54.9631 55.1091V58.4909H53.8149C50.8896 58.4909 48.3326 56.9431 46.926 54.6434C45.5194 56.9431 42.9624 58.4909 40.0371 58.4909H38.889V55.1091C38.889 51.1422 41.8889 47.8583 45.7779 47.3084V43.6877L40.6734 47.0277L39.3997 45.1519L45.7779 40.9774V38.0514L40.6734 41.3914L39.3997 39.5155L45.7779 35.3411V32.415L40.6734 35.755L39.3997 33.8792L45.7779 29.7047V26.7787L40.6734 30.1197L39.3997 28.2439L40.6891 27.4006C40.3449 27.1777 40.0029 26.952 39.6722 26.7253C38.1265 25.669 36.6661 24.6727 34.8727 24.6727C34.1932 24.6727 33.1023 25.145 32.5742 25.4417L31.9199 25.811L31.3133 25.3685C30.658 24.8868 29.9841 24.6727 29.1275 24.6727C27.3341 24.6727 25.8736 25.669 24.328 26.7242C23.4809 27.3038 22.6035 27.9026 21.6348 28.3633C20.6338 28.8398 19.8006 29.6249 19.2227 30.5955L19.2223 30.5954L19.2215 30.5976C19.2156 30.6075 19.2098 30.6173 19.204 30.6272C19.206 30.6279 19.208 30.6286 19.2101 30.6292L18.4459 32.752C18.4411 32.7505 18.4363 32.749 18.4314 32.7475L17.3164 38.2226C17.3612 38.2211 17.4049 38.2163 17.4485 38.2115C17.5008 38.2057 17.5529 38.2 17.6068 38.2H29.7038V40.4545H17.6068C15.052 40.4545 12.842 42.0689 12.1082 44.471L10.5687 49.5113C10.8216 49.4876 11.075 49.4727 11.3334 49.4727H22.8149V51.7273H11.3334Z"/>
</mask>
<path fill-rule="evenodd" clip-rule="evenodd" d="M52.6668 49.4727C57.0984 49.4727 60.7038 53.0125 60.7038 57.3636V60.7455V63H3.29654L3.29639 60.7455V57.3636C3.29639 54.1981 5.20922 51.4691 7.95569 50.2119L9.90833 43.8226C9.96308 43.6461 10.0345 43.4798 10.1061 43.3131C10.1328 43.2511 10.1594 43.189 10.1853 43.1263V25.205C10.1853 23.0561 11.4013 21.1241 13.3589 20.1636L14.7779 19.4668V16.7818H12.4816V13.4C12.4816 11.5357 14.0272 10.0182 15.926 10.0182H22.8149C24.7137 10.0182 26.2593 11.5357 26.2593 13.4V16.7818H23.9631V19.4668L25.3831 20.1636C26.45 20.6865 27.2948 21.5254 27.8532 22.5442C28.2619 22.471 28.6818 22.4182 29.1275 22.4182C30.2156 22.4182 31.1849 22.6626 32.0713 23.1624C32.7558 22.8453 33.8636 22.4182 34.8727 22.4182C37.3848 22.4182 39.2948 23.7226 40.9811 24.8742L40.9835 24.8758C41.6007 25.2975 42.1966 25.6806 42.801 26.0185L45.7779 24.0695V21.2909H41.4561C38.7741 21.2909 36.5927 19.1492 36.5927 16.516C36.5927 15.7784 36.7704 15.0403 37.1057 14.3809L42.5756 3.63984C43.4048 2.01113 45.0715 1 46.926 1C48.7805 1 50.4473 2.01113 51.2764 3.63874L56.7464 14.3798C57.0816 15.0403 57.2593 15.7784 57.2593 16.516C57.2593 19.1492 55.078 21.2909 52.396 21.2909H48.0742V24.0695L54.4512 28.245L53.1775 30.1208L48.0742 26.7798V29.7058L54.4512 33.8814L53.1775 35.7572L48.0742 32.4161V35.3422L54.4512 39.5177L53.1775 41.3936L48.0742 38.0525V40.9785L54.4512 45.153L53.1775 47.0288L48.0742 43.6877V47.3084C49.7998 47.5517 51.3499 48.3295 52.5406 49.4727H52.6668ZM39.1598 15.3887C38.9832 15.7371 38.889 16.1268 38.889 16.516C38.889 17.9058 40.0405 19.0364 41.4561 19.0364H52.396C53.8115 19.0364 54.9631 17.9058 54.9631 16.516C54.9631 16.1268 54.87 15.7371 54.6923 15.3887L49.2223 4.64767C48.9683 4.14954 48.5574 3.77965 48.0742 3.54077H45.7779C45.2946 3.77965 44.8837 4.14954 44.6297 4.64767L39.1598 15.3887ZM52.6668 56.1224V55.1091C52.6668 52.3867 50.6906 50.1096 48.0742 49.5867V50.6C48.0742 53.3213 50.0503 55.5995 52.6668 56.1224ZM41.1853 56.1224C43.8017 55.5995 45.7779 53.3224 45.7779 50.6V49.5867C43.1615 50.1096 41.1853 52.3867 41.1853 55.1091V56.1224ZM15.926 12.2727C15.2936 12.2727 14.7779 12.7791 14.7779 13.4V14.5273H23.9631V13.4C23.9631 12.7791 23.4473 12.2727 22.8149 12.2727H15.926ZM17.0742 20.8605L14.3854 22.1804C13.2104 22.7561 12.4816 23.9153 12.4816 25.205V40.0252C13.1947 39.4434 14.0009 38.9799 14.8844 38.6701L16.2282 32.0754C16.7434 29.5495 18.3899 27.4028 20.6335 26.3356C21.4408 25.9508 22.2066 25.4279 23.0167 24.8747C23.8229 24.3243 24.6829 23.7414 25.6326 23.2807C25.3063 22.8205 24.8769 22.4363 24.3555 22.1804L21.6668 20.8605V16.7818H17.0742V20.8605ZM11.3334 51.7273C8.16817 51.7273 5.59268 54.2559 5.59268 57.3636V60.7455H58.4075V57.3636C58.4075 54.8185 56.669 52.6878 54.3049 51.9898C54.7265 52.947 54.9631 54.0011 54.9631 55.1091V58.4909H53.8149C50.8896 58.4909 48.3326 56.9431 46.926 54.6434C45.5194 56.9431 42.9624 58.4909 40.0371 58.4909H38.889V55.1091C38.889 51.1422 41.8889 47.8583 45.7779 47.3084V43.6877L40.6734 47.0277L39.3997 45.1519L45.7779 40.9774V38.0514L40.6734 41.3914L39.3997 39.5155L45.7779 35.3411V32.415L40.6734 35.755L39.3997 33.8792L45.7779 29.7047V26.7787L40.6734 30.1197L39.3997 28.2439L40.6891 27.4006C40.3449 27.1777 40.0029 26.952 39.6722 26.7253C38.1265 25.669 36.6661 24.6727 34.8727 24.6727C34.1932 24.6727 33.1023 25.145 32.5742 25.4417L31.9199 25.811L31.3133 25.3685C30.658 24.8868 29.9841 24.6727 29.1275 24.6727C27.3341 24.6727 25.8736 25.669 24.328 26.7242C23.4809 27.3038 22.6035 27.9026 21.6348 28.3633C20.6338 28.8398 19.8006 29.6249 19.2227 30.5955L19.2223 30.5954L19.2215 30.5976C19.2156 30.6075 19.2098 30.6173 19.204 30.6272C19.206 30.6279 19.208 30.6286 19.2101 30.6292L18.4459 32.752C18.4411 32.7505 18.4363 32.749 18.4314 32.7475L17.3164 38.2226C17.3612 38.2211 17.4049 38.2163 17.4485 38.2115C17.5008 38.2057 17.5529 38.2 17.6068 38.2H29.7038V40.4545H17.6068C15.052 40.4545 12.842 42.0689 12.1082 44.471L10.5687 49.5113C10.8216 49.4876 11.075 49.4727 11.3334 49.4727H22.8149V51.7273H11.3334Z" fill="#322153"/>
<path d="M60.7038 63V64H61.7038V63H60.7038ZM3.29654 63L2.29654 63.0001L2.29661 64H3.29654V63ZM3.29639 60.7455H2.29639V60.7455L3.29639 60.7455ZM7.95569 50.2119L8.3719 51.1212L8.78065 50.9341L8.91203 50.5042L7.95569 50.2119ZM9.90833 43.8226L8.95322 43.5263L8.95199 43.5303L9.90833 43.8226ZM10.1061 43.3131L11.0249 43.7078L11.0249 43.7078L10.1061 43.3131ZM10.1853 43.1263L11.1098 43.5075L11.1853 43.3244V43.1263H10.1853ZM13.3589 20.1636L13.7994 21.0614L13.7998 21.0612L13.3589 20.1636ZM14.7779 19.4668L15.2187 20.3644L15.7779 20.0898V19.4668H14.7779ZM14.7779 16.7818H15.7779V15.7818H14.7779V16.7818ZM12.4816 16.7818H11.4816V17.7818H12.4816V16.7818ZM26.2593 16.7818V17.7818H27.2593V16.7818H26.2593ZM23.9631 16.7818V15.7818H22.9631V16.7818H23.9631ZM23.9631 19.4668H22.9631V20.09L23.5225 20.3645L23.9631 19.4668ZM25.3831 20.1636L24.9426 21.0614L24.943 21.0616L25.3831 20.1636ZM27.8532 22.5442L26.9763 23.0248L27.3218 23.6553L28.0295 23.5286L27.8532 22.5442ZM32.0713 23.1624L31.5801 24.0334L32.0265 24.2851L32.4916 24.0698L32.0713 23.1624ZM40.9811 24.8742L41.5454 24.0487L41.545 24.0484L40.9811 24.8742ZM40.9835 24.8758L40.4191 25.7014L40.4194 25.7016L40.9835 24.8758ZM42.801 26.0185L42.3129 26.8913L42.8418 27.1871L43.3488 26.8551L42.801 26.0185ZM45.7779 24.0695L46.3256 24.9061L46.7779 24.61V24.0695H45.7779ZM45.7779 21.2909H46.7779V20.2909H45.7779V21.2909ZM37.1057 14.3809L36.2146 13.9271L36.2142 13.9277L37.1057 14.3809ZM42.5756 3.63984L43.4667 4.09365L43.4668 4.09352L42.5756 3.63984ZM51.2764 3.63874L52.1675 3.18494L52.1675 3.18482L51.2764 3.63874ZM56.7464 14.3798L57.6381 13.9272L57.6375 13.926L56.7464 14.3798ZM48.0742 21.2909V20.2909H47.0742V21.2909H48.0742ZM48.0742 24.0695H47.0742V24.61L47.5264 24.9061L48.0742 24.0695ZM54.4512 28.245L55.2785 28.8067L55.8498 27.9654L54.999 27.4084L54.4512 28.245ZM53.1775 30.1208L52.6297 30.9575L53.4524 31.4961L54.0048 30.6826L53.1775 30.1208ZM48.0742 26.7798L48.6219 25.9431L47.0742 24.9298V26.7798H48.0742ZM48.0742 29.7058H47.0742V30.2463L47.5264 30.5424L48.0742 29.7058ZM54.4512 33.8814L55.2785 34.4431L55.8498 33.6018L54.999 33.0447L54.4512 33.8814ZM53.1775 35.7572L52.6297 36.5939L53.4524 37.1325L54.0048 36.319L53.1775 35.7572ZM48.0742 32.4161L48.6219 31.5795L47.0742 30.5662V32.4161H48.0742ZM48.0742 35.3422H47.0742V35.8827L47.5264 36.1788L48.0742 35.3422ZM54.4512 39.5177L55.2785 40.0795L55.8498 39.2382L54.999 38.6811L54.4512 39.5177ZM53.1775 41.3936L52.6297 42.2302L53.4524 42.7688L54.0048 41.9553L53.1775 41.3936ZM48.0742 38.0525L48.6219 37.2158L47.0742 36.2025V38.0525H48.0742ZM48.0742 40.9785H47.0742V41.5191L47.5265 41.8152L48.0742 40.9785ZM54.4512 45.153L55.2785 45.7147L55.8498 44.8733L54.9989 44.3163L54.4512 45.153ZM53.1775 47.0288L52.6297 47.8655L53.4524 48.4041L54.0048 47.5906L53.1775 47.0288ZM48.0742 43.6877L48.6219 42.8511L47.0742 41.8378V43.6877H48.0742ZM48.0742 47.3084H47.0742V48.1773L47.9346 48.2987L48.0742 47.3084ZM52.5406 49.4727L51.8481 50.1941L52.1383 50.4727H52.5406V49.4727ZM39.1598 15.3887L38.2687 14.9349L38.2678 14.9366L39.1598 15.3887ZM54.6923 15.3887L53.8012 15.8425L53.8015 15.8431L54.6923 15.3887ZM49.2223 4.64767L50.1134 4.19387L50.1132 4.19348L49.2223 4.64767ZM48.0742 3.54077L48.5173 2.64431L48.3078 2.54077H48.0742V3.54077ZM45.7779 3.54077V2.54077H45.5442L45.3347 2.64431L45.7779 3.54077ZM44.6297 4.64767L43.7388 4.19348L43.7386 4.19387L44.6297 4.64767ZM52.6668 56.1224L52.4708 57.103L53.6668 57.3421V56.1224H52.6668ZM48.0742 49.5867L48.2701 48.6061L47.0742 48.367V49.5867H48.0742ZM41.1853 56.1224H40.1853V57.3421L41.3813 57.103L41.1853 56.1224ZM45.7779 49.5867H46.7779V48.367L45.5819 48.6061L45.7779 49.5867ZM14.7779 14.5273H13.7779V15.5273H14.7779V14.5273ZM23.9631 14.5273V15.5273H24.9631V14.5273H23.9631ZM14.3854 22.1804L14.8254 23.0784L14.8261 23.0781L14.3854 22.1804ZM17.0742 20.8605L17.5148 21.7581L18.0742 21.4836V20.8605H17.0742ZM12.4816 40.0252H11.4816V42.1317L13.1137 40.8L12.4816 40.0252ZM14.8844 38.6701L15.2154 39.6137L15.7509 39.4259L15.8642 38.8697L14.8844 38.6701ZM16.2282 32.0754L15.2484 31.8756L15.2483 31.8757L16.2282 32.0754ZM20.6335 26.3356L21.0631 27.2386L21.0638 27.2383L20.6335 26.3356ZM23.0167 24.8747L22.4529 24.0489L22.4528 24.0489L23.0167 24.8747ZM25.6326 23.2807L26.069 24.1804L27.1311 23.6652L26.4483 22.7023L25.6326 23.2807ZM24.3555 22.1804L24.7962 21.2827L24.3555 22.1804ZM21.6668 20.8605H20.6668V21.4836L21.2261 21.7581L21.6668 20.8605ZM21.6668 16.7818H22.6668V15.7818H21.6668V16.7818ZM17.0742 16.7818V15.7818H16.0742V16.7818H17.0742ZM5.59268 60.7455H4.59268V61.7455H5.59268V60.7455ZM58.4075 60.7455V61.7455H59.4075V60.7455H58.4075ZM54.3049 51.9898L54.588 51.0307L52.521 50.4205L53.3897 52.3929L54.3049 51.9898ZM54.9631 58.4909V59.4909H55.9631V58.4909H54.9631ZM46.926 54.6434L47.7791 54.1216L46.926 52.7269L46.0729 54.1216L46.926 54.6434ZM38.889 58.4909H37.889V59.4909H38.889V58.4909ZM45.7779 47.3084L45.9179 48.2986L46.7779 48.177V47.3084H45.7779ZM45.7779 43.6877H46.7779V41.8384L45.2303 42.851L45.7779 43.6877ZM40.6734 47.0277L39.8461 47.5895L40.3984 48.4028L41.221 47.8645L40.6734 47.0277ZM39.3997 45.1519L38.8521 44.3152L38.001 44.8722L38.5724 45.7136L39.3997 45.1519ZM45.7779 40.9774L46.3255 41.8142L46.7779 41.5181V40.9774H45.7779ZM45.7779 38.0514H46.7779V36.202L45.2303 37.2146L45.7779 38.0514ZM40.6734 41.3914L39.8461 41.9531L40.3984 42.7664L41.221 42.2282L40.6734 41.3914ZM39.3997 39.5155L38.8521 38.6788L38.001 39.2358L38.5724 40.0773L39.3997 39.5155ZM45.7779 35.3411L46.3255 36.1778L46.7779 35.8817V35.3411H45.7779ZM45.7779 32.415H46.7779V30.5656L45.2303 31.5782L45.7779 32.415ZM40.6734 35.755L39.8461 36.3168L40.3984 37.13L41.221 36.5918L40.6734 35.755ZM39.3997 33.8792L38.8521 33.0424L38.001 33.5994L38.5724 34.4409L39.3997 33.8792ZM45.7779 29.7047L46.3255 30.5414L46.7779 30.2454V29.7047H45.7779ZM45.7779 26.7787H46.7779V24.9289L45.2302 25.942L45.7779 26.7787ZM40.6734 30.1197L39.8461 30.6815L40.3984 31.4949L41.2211 30.9564L40.6734 30.1197ZM39.3997 28.2439L38.8524 27.407L38.0008 27.9639L38.5724 28.8056L39.3997 28.2439ZM40.6891 27.4006L41.2365 28.2376L42.5225 27.3965L41.2327 26.5613L40.6891 27.4006ZM39.6722 26.7253L40.2376 25.9005L40.2364 25.8996L39.6722 26.7253ZM32.5742 25.4417L32.0844 24.5698L32.0826 24.5709L32.5742 25.4417ZM31.9199 25.811L31.3305 26.6189L31.8508 26.9984L32.4115 26.6818L31.9199 25.811ZM31.3133 25.3685L30.7211 26.1743L30.724 26.1763L31.3133 25.3685ZM24.328 26.7242L23.7642 25.8983L23.7633 25.8989L24.328 26.7242ZM21.6348 28.3633L21.2053 27.4603L21.205 27.4604L21.6348 28.3633ZM19.2227 30.5955L18.8693 31.531L19.6532 31.8271L20.0819 31.1071L19.2227 30.5955ZM19.2223 30.5954L19.5757 29.6599L18.6254 29.3009L18.2814 30.2567L19.2223 30.5954ZM19.2215 30.5976L20.0809 31.1088L20.1299 31.0265L20.1624 30.9363L19.2215 30.5976ZM19.204 30.6272L18.3417 30.1208L17.7114 31.1941L18.8952 31.5784L19.204 30.6272ZM19.2101 30.6292L20.151 30.9679L20.5001 29.998L19.52 29.6785L19.2101 30.6292ZM18.4459 32.752L18.1471 33.7063L19.0621 33.9928L19.3868 33.0907L18.4459 32.752ZM18.4314 32.7475L18.7263 31.792L17.6718 31.4665L17.4515 32.5479L18.4314 32.7475ZM17.3164 38.2226L16.3365 38.023L16.0836 39.2644L17.3498 39.222L17.3164 38.2226ZM17.4485 38.2115L17.3393 37.2175L17.3393 37.2175L17.4485 38.2115ZM29.7038 38.2H30.7038V37.2H29.7038V38.2ZM29.7038 40.4545V41.4545H30.7038V40.4545H29.7038ZM12.1082 44.471L11.1518 44.1788L11.1518 44.1789L12.1082 44.471ZM10.5687 49.5113L9.61235 49.2191L9.17656 50.646L10.6619 50.5069L10.5687 49.5113ZM22.8149 49.4727H23.8149V48.4727H22.8149V49.4727ZM22.8149 51.7273V52.7273H23.8149V51.7273H22.8149ZM61.7038 57.3636C61.7038 52.443 57.6334 48.4727 52.6668 48.4727V50.4727C56.5635 50.4727 59.7038 53.582 59.7038 57.3636H61.7038ZM61.7038 60.7455V57.3636H59.7038V60.7455H61.7038ZM61.7038 63V60.7455H59.7038V63H61.7038ZM3.29654 64H60.7038V62H3.29654V64ZM2.29639 60.7455L2.29654 63.0001L4.29654 62.9999L4.29639 60.7454L2.29639 60.7455ZM2.29639 57.3636V60.7455H4.29639V57.3636H2.29639ZM7.53948 49.3027C4.46093 50.7119 2.29639 53.7816 2.29639 57.3636H4.29639C4.29639 54.6146 5.9575 52.2264 8.3719 51.1212L7.53948 49.3027ZM8.95199 43.5303L6.99936 49.9197L8.91203 50.5042L10.8647 44.1149L8.95199 43.5303ZM9.18731 42.9184C9.11887 43.0777 9.02605 43.2915 8.95322 43.5263L10.8634 44.1189C10.9001 44.0006 10.9502 43.8819 11.0249 43.7078L9.18731 42.9184ZM9.26076 42.7452C9.23818 42.7999 9.21443 42.8553 9.18731 42.9184L11.0249 43.7078C11.0511 43.6469 11.0807 43.5781 11.1098 43.5075L9.26076 42.7452ZM9.18528 25.205V43.1263H11.1853V25.205H9.18528ZM12.9185 19.2659C10.6247 20.3913 9.18528 22.6676 9.18528 25.205H11.1853C11.1853 23.4446 12.1779 21.857 13.7994 21.0614L12.9185 19.2659ZM14.3371 18.5692L12.9181 19.266L13.7998 21.0612L15.2187 20.3644L14.3371 18.5692ZM13.7779 16.7818V19.4668H15.7779V16.7818H13.7779ZM12.4816 17.7818H14.7779V15.7818H12.4816V17.7818ZM11.4816 13.4V16.7818H13.4816V13.4H11.4816ZM15.926 9.01818C13.4923 9.01818 11.4816 10.9662 11.4816 13.4H13.4816C13.4816 12.1052 14.5621 11.0182 15.926 11.0182V9.01818ZM22.8149 9.01818H15.926V11.0182H22.8149V9.01818ZM27.2593 13.4C27.2593 10.9662 25.2486 9.01818 22.8149 9.01818V11.0182C24.1788 11.0182 25.2593 12.1052 25.2593 13.4H27.2593ZM27.2593 16.7818V13.4H25.2593V16.7818H27.2593ZM23.9631 17.7818H26.2593V15.7818H23.9631V17.7818ZM24.9631 19.4668V16.7818H22.9631V19.4668H24.9631ZM25.8236 19.2659L24.4036 18.5691L23.5225 20.3645L24.9426 21.0614L25.8236 19.2659ZM28.7301 22.0636C28.0782 20.8741 27.0854 19.8843 25.8232 19.2657L24.943 21.0616C25.8145 21.4888 26.5114 22.1766 26.9763 23.0248L28.7301 22.0636ZM29.1275 21.4182C28.6025 21.4182 28.1199 21.4805 27.6769 21.5599L28.0295 23.5286C28.4039 23.4615 28.761 23.4182 29.1275 23.4182V21.4182ZM32.5625 22.2913C31.5153 21.7008 30.3747 21.4182 29.1275 21.4182V23.4182C30.0565 23.4182 30.8546 23.6243 31.5801 24.0334L32.5625 22.2913ZM34.8727 21.4182C33.6342 21.4182 32.3599 21.9266 31.651 22.255L32.4916 24.0698C33.1517 23.764 34.0929 23.4182 34.8727 23.4182V21.4182ZM41.545 24.0484C39.8881 22.9168 37.7357 21.4182 34.8727 21.4182V23.4182C37.0338 23.4182 38.7014 24.5283 40.4171 25.7L41.545 24.0484ZM41.5478 24.0503L41.5454 24.0487L40.4168 25.6998L40.4191 25.7014L41.5478 24.0503ZM43.2891 25.1457C42.7203 24.8277 42.1513 24.4625 41.5475 24.0501L40.4194 25.7016C41.0501 26.1324 41.673 26.5334 42.3129 26.8913L43.2891 25.1457ZM45.2301 23.2328L42.2532 25.1819L43.3488 26.8551L46.3256 24.9061L45.2301 23.2328ZM44.7779 21.2909V24.0695H46.7779V21.2909H44.7779ZM41.4561 22.2909H45.7779V20.2909H41.4561V22.2909ZM35.5927 16.516C35.5927 19.7187 38.2391 22.2909 41.4561 22.2909V20.2909C39.309 20.2909 37.5927 18.5797 37.5927 16.516H35.5927ZM36.2142 13.9277C35.8081 14.7266 35.5927 15.6199 35.5927 16.516H37.5927C37.5927 15.9369 37.7327 15.354 37.9971 14.8341L36.2142 13.9277ZM41.6845 3.18604L36.2146 13.9271L37.9968 14.8347L43.4667 4.09365L41.6845 3.18604ZM46.926 0C44.7025 0 42.6875 1.21588 41.6845 3.18616L43.4668 4.09352C44.122 2.80639 45.4405 2 46.926 2V0ZM52.1675 3.18482C51.1644 1.21577 49.1494 0 46.926 0V2C48.4117 2 49.7302 2.80649 50.3854 4.09267L52.1675 3.18482ZM57.6375 13.926L52.1675 3.18494L50.3853 4.09255L55.8553 14.8336L57.6375 13.926ZM58.2593 16.516C58.2593 15.6198 58.0439 14.7267 57.6381 13.9272L55.8547 14.8324C56.1193 15.3538 56.2593 15.937 56.2593 16.516H58.2593ZM52.396 22.2909C55.6129 22.2909 58.2593 19.7187 58.2593 16.516H56.2593C56.2593 18.5797 54.5431 20.2909 52.396 20.2909V22.2909ZM48.0742 22.2909H52.396V20.2909H48.0742V22.2909ZM49.0742 24.0695V21.2909H47.0742V24.0695H49.0742ZM54.999 27.4084L48.622 23.2328L47.5264 24.9061L53.9034 29.0816L54.999 27.4084ZM54.0048 30.6826L55.2785 28.8067L53.6239 27.6832L52.3502 29.5591L54.0048 30.6826ZM47.5264 27.6164L52.6297 30.9575L53.7252 29.2842L48.6219 25.9431L47.5264 27.6164ZM49.0742 29.7058V26.7798H47.0742V29.7058H49.0742ZM54.999 33.0447L48.622 28.8692L47.5264 30.5424L53.9034 34.718L54.999 33.0447ZM54.0048 36.319L55.2785 34.4431L53.6239 33.3196L52.3502 35.1955L54.0048 36.319ZM47.5264 33.2528L52.6297 36.5939L53.7252 34.9206L48.6219 31.5795L47.5264 33.2528ZM49.0742 35.3422V32.4161H47.0742V35.3422H49.0742ZM54.999 38.6811L48.622 34.5056L47.5264 36.1788L53.9034 40.3543L54.999 38.6811ZM54.0048 41.9553L55.2785 40.0795L53.6239 38.956L52.3502 40.8318L54.0048 41.9553ZM47.5264 38.8891L52.6297 42.2302L53.7252 40.5569L48.6219 37.2158L47.5264 38.8891ZM49.0742 40.9785V38.0525H47.0742V40.9785H49.0742ZM54.9989 44.3163L48.6219 40.1419L47.5265 41.8152L53.9035 45.9897L54.9989 44.3163ZM54.0048 47.5906L55.2785 45.7147L53.6239 44.5912L52.3502 46.4671L54.0048 47.5906ZM47.5264 44.5244L52.6297 47.8655L53.7252 46.1922L48.6219 42.8511L47.5264 44.5244ZM49.0742 47.3084V43.6877H47.0742V47.3084H49.0742ZM53.2332 48.7514C51.8932 47.4649 50.1504 46.5913 48.2138 46.3182L47.9346 48.2987C49.4491 48.5122 50.8065 49.1941 51.8481 50.1941L53.2332 48.7514ZM52.6668 48.4727H52.5406V50.4727H52.6668V48.4727ZM39.889 16.516C39.889 16.286 39.9452 16.051 40.0517 15.8408L38.2678 14.9366C38.0211 15.4232 37.889 15.9676 37.889 16.516H39.889ZM41.4561 18.0364C40.5754 18.0364 39.889 17.3363 39.889 16.516H37.889C37.889 18.4753 39.5056 20.0364 41.4561 20.0364V18.0364ZM52.396 18.0364H41.4561V20.0364H52.396V18.0364ZM53.9631 16.516C53.9631 17.3363 53.2766 18.0364 52.396 18.0364V20.0364C54.3464 20.0364 55.9631 18.4753 55.9631 16.516H53.9631ZM53.8015 15.8431C53.9071 16.0503 53.9631 16.2842 53.9631 16.516H55.9631C55.9631 15.9694 55.8328 15.424 55.5831 14.9343L53.8015 15.8431ZM48.3312 5.10148L53.8012 15.8425L55.5834 14.9349L50.1134 4.19387L48.3312 5.10148ZM47.631 4.43722C47.9485 4.59414 48.1881 4.82084 48.3314 5.10187L50.1132 4.19348C49.7486 3.47823 49.1664 2.96516 48.5173 2.64431L47.631 4.43722ZM45.7779 4.54077H48.0742V2.54077H45.7779V4.54077ZM45.5206 5.10187C45.6639 4.82084 45.9036 4.59414 46.221 4.43722L45.3347 2.64431C44.6857 2.96516 44.1035 3.47823 43.7388 4.19348L45.5206 5.10187ZM40.0509 15.8425L45.5208 5.10148L43.7386 4.19387L38.2687 14.9349L40.0509 15.8425ZM51.6668 55.1091V56.1224H53.6668V55.1091H51.6668ZM47.8782 50.5673C50.0496 51.0012 51.6668 52.886 51.6668 55.1091H53.6668C53.6668 51.8874 51.3316 49.2179 48.2701 48.6061L47.8782 50.5673ZM49.0742 50.6V49.5867H47.0742V50.6H49.0742ZM52.8627 55.1418C50.6915 54.7079 49.0742 52.8222 49.0742 50.6H47.0742C47.0742 53.8205 49.4092 56.4912 52.4708 57.103L52.8627 55.1418ZM44.7779 50.6C44.7779 52.8231 43.1607 54.7079 40.9893 55.1418L41.3813 57.103C44.4427 56.4912 46.7779 53.8217 46.7779 50.6H44.7779ZM44.7779 49.5867V50.6H46.7779V49.5867H44.7779ZM42.1853 55.1091C42.1853 52.886 43.8025 51.0012 45.9739 50.5673L45.5819 48.6061C42.5205 49.2179 40.1853 51.8874 40.1853 55.1091H42.1853ZM42.1853 56.1224V55.1091H40.1853V56.1224H42.1853ZM15.7779 13.4C15.7779 13.3486 15.8285 13.2727 15.926 13.2727V11.2727C14.7587 11.2727 13.7779 12.2096 13.7779 13.4H15.7779ZM15.7779 14.5273V13.4H13.7779V14.5273H15.7779ZM23.9631 13.5273H14.7779V15.5273H23.9631V13.5273ZM22.9631 13.4V14.5273H24.9631V13.4H22.9631ZM22.8149 13.2727C22.9124 13.2727 22.9631 13.3486 22.9631 13.4H24.9631C24.9631 12.2096 23.9822 11.2727 22.8149 11.2727V13.2727ZM15.926 13.2727H22.8149V11.2727H15.926V13.2727ZM14.8261 23.0781L17.5148 21.7581L16.6335 19.9628L13.9448 21.2827L14.8261 23.0781ZM13.4816 25.205C13.4816 24.3034 13.9874 23.489 14.8254 23.0784L13.9454 21.2824C12.4334 22.0233 11.4816 23.5273 11.4816 25.205H13.4816ZM13.4816 40.0252V25.205H11.4816V40.0252H13.4816ZM14.5534 37.7264C13.5545 38.0768 12.6473 38.5994 11.8494 39.2504L13.1137 40.8C13.742 40.2874 14.4472 39.8831 15.2154 39.6137L14.5534 37.7264ZM15.2483 31.8757L13.9045 38.4704L15.8642 38.8697L17.2081 32.2751L15.2483 31.8757ZM20.204 25.4325C17.6641 26.6408 15.8235 29.0558 15.2484 31.8756L17.208 32.2753C17.6633 30.0432 19.1158 28.1649 21.0631 27.2386L20.204 25.4325ZM22.4528 24.0489C21.6293 24.6113 20.9282 25.0874 20.2033 25.4328L21.0638 27.2383C21.9534 26.8143 22.784 26.2446 23.5806 25.7006L22.4528 24.0489ZM25.1961 22.381C24.1706 22.8785 23.2532 23.5024 22.4529 24.0489L23.5806 25.7006C24.3926 25.1462 25.1952 24.6043 26.069 24.1804L25.1961 22.381ZM23.9148 23.0781C24.2735 23.2542 24.5783 23.5227 24.8168 23.8591L26.4483 22.7023C26.0343 22.1184 25.4802 21.6185 24.7962 21.2827L23.9148 23.0781ZM21.2261 21.7581L23.9148 23.0781L24.7962 21.2827L22.1074 19.9628L21.2261 21.7581ZM20.6668 16.7818V20.8605H22.6668V16.7818H20.6668ZM17.0742 17.7818H21.6668V15.7818H17.0742V17.7818ZM18.0742 20.8605V16.7818H16.0742V20.8605H18.0742ZM6.59268 57.3636C6.59268 54.8254 8.70308 52.7273 11.3334 52.7273V50.7273C7.63326 50.7273 4.59268 53.6864 4.59268 57.3636H6.59268ZM6.59268 60.7455V57.3636H4.59268V60.7455H6.59268ZM58.4075 59.7455H5.59268V61.7455H58.4075V59.7455ZM57.4075 57.3636V60.7455H59.4075V57.3636H57.4075ZM54.0217 52.9489C55.9924 53.5307 57.4075 55.2938 57.4075 57.3636H59.4075C59.4075 54.3431 57.3457 51.8449 54.588 51.0307L54.0217 52.9489ZM55.9631 55.1091C55.9631 53.8572 55.6955 52.6662 55.2201 51.5868L53.3897 52.3929C53.7574 53.2278 53.9631 54.145 53.9631 55.1091H55.9631ZM55.9631 58.4909V55.1091H53.9631V58.4909H55.9631ZM53.8149 59.4909H54.9631V57.4909H53.8149V59.4909ZM46.0729 55.1652C47.6548 57.7514 50.5292 59.4909 53.8149 59.4909V57.4909C51.25 57.4909 49.0104 56.1348 47.7791 54.1216L46.0729 55.1652ZM40.0371 59.4909C43.3229 59.4909 46.1973 57.7514 47.7791 55.1652L46.0729 54.1216C44.8416 56.1348 42.602 57.4909 40.0371 57.4909V59.4909ZM38.889 59.4909H40.0371V57.4909H38.889V59.4909ZM37.889 55.1091V58.4909H39.889V55.1091H37.889ZM45.6379 46.3183C41.279 46.9346 37.889 50.6207 37.889 55.1091H39.889C39.889 51.6636 42.4987 48.782 45.9179 48.2986L45.6379 46.3183ZM44.7779 43.6877V47.3084H46.7779V43.6877H44.7779ZM41.221 47.8645L46.3254 44.5245L45.2303 42.851L40.1259 46.191L41.221 47.8645ZM38.5724 45.7136L39.8461 47.5895L41.5007 46.466L40.227 44.5901L38.5724 45.7136ZM45.2302 40.1407L38.8521 44.3152L39.9473 45.9886L46.3255 41.8142L45.2302 40.1407ZM44.7779 38.0514V40.9774H46.7779V38.0514H44.7779ZM41.221 42.2282L46.3254 38.8882L45.2303 37.2146L40.1259 40.5546L41.221 42.2282ZM38.5724 40.0773L39.8461 41.9531L41.5007 40.8296L40.227 38.9538L38.5724 40.0773ZM45.2302 34.5044L38.8521 38.6788L39.9473 40.3522L46.3255 36.1778L45.2302 34.5044ZM44.7779 32.415V35.3411H46.7779V32.415H44.7779ZM41.221 36.5918L46.3254 33.2518L45.2303 31.5782L40.1259 34.9182L41.221 36.5918ZM38.5724 34.4409L39.8461 36.3168L41.5007 35.1933L40.227 33.3174L38.5724 34.4409ZM45.2302 28.868L38.8521 33.0424L39.9473 34.7159L46.3255 30.5414L45.2302 28.868ZM44.7779 26.7787V29.7047H46.7779V26.7787H44.7779ZM41.2211 30.9564L46.3255 27.6154L45.2302 25.942L40.1258 29.283L41.2211 30.9564ZM38.5724 28.8056L39.8461 30.6815L41.5007 29.558L40.227 27.6821L38.5724 28.8056ZM40.1418 26.5637L38.8524 27.407L39.947 29.0808L41.2365 28.2376L40.1418 26.5637ZM39.1067 27.55C39.4471 27.7834 39.7968 28.0142 40.1455 28.24L41.2327 26.5613C40.893 26.3413 40.5588 26.1207 40.2376 25.9005L39.1067 27.55ZM34.8727 25.6727C36.3045 25.6727 37.5086 26.4579 39.1079 27.5509L40.2364 25.8996C38.7445 24.8801 37.0277 23.6727 34.8727 23.6727V25.6727ZM33.064 26.3135C33.2804 26.1919 33.6363 26.022 34.0105 25.885C34.409 25.739 34.7155 25.6727 34.8727 25.6727V23.6727C34.3504 23.6727 33.7717 23.8425 33.3228 24.0069C32.8497 24.1802 32.396 24.3947 32.0844 24.5698L33.064 26.3135ZM32.4115 26.6818L33.0658 26.3125L32.0826 24.5709L31.4283 24.9402L32.4115 26.6818ZM30.724 26.1763L31.3305 26.6189L32.5093 25.0031L31.9027 24.5606L30.724 26.1763ZM29.1275 25.6727C29.7836 25.6727 30.2473 25.8261 30.7211 26.1743L31.9055 24.5627C31.0686 23.9476 30.1846 23.6727 29.1275 23.6727V25.6727ZM24.8918 27.5501C26.4916 26.458 27.6955 25.6727 29.1275 25.6727V23.6727C26.9726 23.6727 25.2557 24.88 23.7642 25.8983L24.8918 27.5501ZM22.0643 29.2664C23.1147 28.7668 24.0546 28.1229 24.8927 27.5495L23.7633 25.8989C22.9072 26.4846 22.0924 27.0384 21.2053 27.4603L22.0643 29.2664ZM20.0819 31.1071C20.5658 30.2944 21.2546 29.6518 22.0646 29.2663L21.205 27.4604C20.0129 28.0278 19.0354 28.9554 18.3635 30.084L20.0819 31.1071ZM18.8689 31.5308L18.8693 31.531L19.5761 29.66L19.5757 29.6599L18.8689 31.5308ZM20.1624 30.9363L20.1632 30.934L18.2814 30.2567L18.2806 30.2589L20.1624 30.9363ZM20.0662 31.1336C20.0712 31.1253 20.076 31.117 20.0809 31.1088L18.362 30.0863C18.3552 30.0979 18.3484 30.1094 18.3417 30.1208L20.0662 31.1336ZM19.52 29.6785C19.5179 29.6778 19.5154 29.677 19.5127 29.6761L18.8952 31.5784C18.8966 31.5788 18.8982 31.5794 18.9001 31.58L19.52 29.6785ZM19.3868 33.0907L20.151 30.9679L18.2692 30.2905L17.505 32.4133L19.3868 33.0907ZM18.1365 33.703C18.1401 33.7041 18.1436 33.7052 18.1471 33.7063L18.7447 31.7977C18.7386 31.7957 18.7324 31.7938 18.7263 31.792L18.1365 33.703ZM18.2962 38.4221L19.4113 32.947L17.4515 32.5479L16.3365 38.023L18.2962 38.4221ZM17.3393 37.2175C17.3159 37.22 17.3037 37.2213 17.2929 37.2223C17.2832 37.2232 17.2809 37.2232 17.2829 37.2231L17.3498 39.222C17.4388 39.219 17.5199 39.2097 17.5578 39.2055L17.3393 37.2175ZM17.6068 37.2C17.4894 37.2 17.3834 37.2126 17.3393 37.2175L17.5577 39.2055C17.5714 39.204 17.581 39.2029 17.59 39.202C17.5987 39.2011 17.6045 39.2006 17.6086 39.2003C17.6169 39.1996 17.6149 39.2 17.6068 39.2V37.2ZM29.7038 37.2H17.6068V39.2H29.7038V37.2ZM30.7038 40.4545V38.2H28.7038V40.4545H30.7038ZM17.6068 41.4545H29.7038V39.4545H17.6068V41.4545ZM13.0646 44.7632C13.6669 42.7916 15.4813 41.4545 17.6068 41.4545V39.4545C14.6227 39.4545 12.0172 41.3463 11.1518 44.1788L13.0646 44.7632ZM11.5251 49.8034L13.0646 44.7631L11.1518 44.1789L9.61235 49.2191L11.5251 49.8034ZM11.3334 48.4727C11.0367 48.4727 10.7513 48.4898 10.4755 48.5156L10.6619 50.5069C10.8919 50.4854 11.1133 50.4727 11.3334 50.4727V48.4727ZM22.8149 48.4727H11.3334V50.4727H22.8149V48.4727ZM23.8149 51.7273V49.4727H21.8149V51.7273H23.8149ZM11.3334 52.7273H22.8149V50.7273H11.3334V52.7273Z" fill="#322153" mask="url(#path-3-inside-1_26563_183)"/>
</svg>
